<svg xmlns="http://www.w3.org/2000/svg" viewBox="0 0 64 47.9"><defs><style>.a{fill:#fff;}</style></defs><title>FlowLight</title><path class="a" d="M2.58,28.24V7.55a5,5,0,0,1,5-5h48.9a5,5,0,0,1,5,5V33.92a5,5,0,0,1-5,5H33.87v2.58H56.45A7.56,7.56,0,0,0,64,33.92V7.55A7.56,7.56,0,0,0,56.45,0H7.55A7.56,7.56,0,0,0,0,7.55V28.24Z"/><path class="a" d="M33.94,23.06a2.25,2.25,0,0,0,2.25,2.26h10.5a2.25,2.25,0,0,0,2.25-2.26V12.52a2.25,2.25,0,0,0-2.25-2.26H36.19a2.25,2.25,0,0,0-2.25,2.26v3.39H29.71a4.11,4.11,0,0,0-3.9,2.83l-6.45,19.5a.37.37,0,0,1-.35.26H15V35.1a2.25,2.25,0,0,0-2.25-2.26H2.25A2.25,2.25,0,0,0,0,35.1V45.65A2.25,2.25,0,0,0,2.25,47.9h10.5A2.25,2.25,0,0,0,15,45.65V42.26h4a4.11,4.11,0,0,0,3.9-2.83l6.45-19.5a.37.37,0,0,1,.35-.26h4.24ZM11.25,44.14H3.75V36.61h7.5Z"/></svg>