<?xml version="1.0" encoding="UTF-8" standalone="no"?><svg width="25px" height="24px" viewBox="0 0 25 24" version="1.1" xmlns="http://www.w3.org/2000/svg" xmlns:xlink="http://www.w3.org/1999/xlink"><title>Settings</title><defs></defs><g id="Redlines" stroke="none" stroke-width="1" fill="none" fill-rule="evenodd"><g id="Loading" transform="translate(-300.000000, -626.000000)" fill="#ffffff"><g id="Tab---My-flows" transform="translate(0.000000, 618.000000)"><path d="M321.696955,19.5756385 C321.696955,19.6463658 321.698919,19.717092 321.702849,19.7878193 C321.706778,19.8585465 321.708743,19.9292727 321.708743,20 C321.708743,20.0707273 321.706778,20.1414535 321.702849,20.2121807 C321.698919,20.282908 321.696955,20.3536342 321.696955,20.4243615 L324.75,22.3222004 L322.875737,26.8369352 L319.374754,26.0353635 C319.186148,26.2396867 318.989687,26.4361484 318.785363,26.6247544 L319.586935,30.1257367 L315.0722,32 L313.174361,28.9469548 C313.103634,28.9469548 313.032908,28.9489194 312.962181,28.9528487 C312.891453,28.956778 312.820727,28.9587426 312.75,28.9587426 C312.679273,28.9587426 312.608547,28.956778 312.537819,28.9528487 C312.467092,28.9489194 312.396366,28.9469548 312.325639,28.9469548 L310.4278,32 L305.913065,30.1257367 L306.714637,26.6247544 C306.510313,26.4361484 306.313852,26.2396867 306.125246,26.0353635 L302.624263,26.8369352 L300.75,22.3222004 L303.803045,20.4243615 C303.803045,20.3536342 303.801081,20.282908 303.797151,20.2121807 C303.793222,20.1414535 303.791257,20.0707273 303.791257,20 C303.791257,19.9292727 303.793222,19.8585465 303.797151,19.7878193 C303.801081,19.717092 303.803045,19.6463658 303.803045,19.5756385 L300.75,17.6777996 L302.624263,13.1630648 L306.125246,13.9646365 C306.313852,13.7603133 306.510313,13.5638516 306.714637,13.3752456 L305.913065,9.87426326 L310.4278,8 L312.325639,11.0530452 C312.396366,11.0530452 312.467092,11.0510806 312.537819,11.0471513 C312.608547,11.043222 312.679273,11.0412574 312.75,11.0412574 C312.820727,11.0412574 312.891453,11.043222 312.962181,11.0471513 C313.032908,11.0510806 313.103634,11.0530452 313.174361,11.0530452 L315.0722,8 L319.586935,9.87426326 L318.785363,13.3752456 C318.989687,13.5638516 319.186148,13.7603133 319.374754,13.9646365 L322.875737,13.1630648 L324.75,17.6777996 L321.696955,19.5756385 Z M320.31778,21.108055 C320.333497,20.919449 320.349214,20.7328104 320.364931,20.5481336 C320.380648,20.3634568 320.388507,20.1768182 320.388507,19.9882122 C320.388507,19.8074647 320.380648,19.6227907 320.364931,19.4341847 C320.349214,19.2455786 320.333497,19.0609046 320.31778,18.8801572 L323.099705,17.1473477 L322.085953,14.6954813 L318.891454,15.4381139 C318.647838,15.1394877 318.398331,14.8644413 318.142927,14.6129666 C317.887523,14.3614919 317.610512,14.1100209 317.311886,13.8585462 L318.054519,10.6640472 L315.602652,9.6502947 L313.858055,12.43222 C313.677308,12.4165029 313.492634,12.4007859 313.304028,12.3850688 C313.115421,12.3693516 312.930747,12.3614931 312.75,12.3614931 C312.561394,12.3614931 312.374755,12.3693516 312.190079,12.3850688 C312.005402,12.4007859 311.818763,12.4165029 311.630157,12.43222 L309.897348,9.6502947 L307.445481,10.6640472 L308.188114,13.8585462 C307.889488,14.1021623 307.614441,14.3516687 307.362967,14.6070727 C307.111492,14.8624767 306.860021,15.1394877 306.608546,15.4381139 L303.414047,14.6954813 L302.400295,17.1473477 L305.18222,18.891945 C305.166503,19.080551 305.150786,19.2671896 305.135069,19.4518664 C305.119352,19.6365432 305.111493,19.8231818 305.111493,20.0117878 C305.111493,20.1925353 305.119352,20.3772093 305.135069,20.5658153 C305.150786,20.7544214 305.166503,20.9390954 305.18222,21.1198428 L302.400295,22.8526523 L303.414047,25.3045187 L306.608546,24.5618861 C306.852162,24.8605123 307.101669,25.1355587 307.357073,25.3870334 C307.612477,25.6385081 307.889488,25.8899791 308.188114,26.1414538 L307.445481,29.3359528 L309.897348,30.3497053 L311.641945,27.56778 C311.822692,27.5834971 312.007366,27.5992141 312.195972,27.6149312 C312.384579,27.6306484 312.569253,27.6385069 312.75,27.6385069 C312.938606,27.6385069 313.125245,27.6306484 313.309921,27.6149312 C313.494598,27.5992141 313.681237,27.5834971 313.869843,27.56778 L315.602652,30.3497053 L318.054519,29.3359528 L317.311886,26.1414538 C317.610512,25.8978377 317.885559,25.6483313 318.137033,25.3929273 C318.388508,25.1375233 318.639979,24.8605123 318.891454,24.5618861 L322.085953,25.3045187 L323.099705,22.8526523 L320.31778,21.108055 Z M312.75,15.56778 C313.36297,15.56778 313.938602,15.6836924 314.476916,15.9155206 C315.015229,16.1473489 315.484772,16.4636522 315.88556,16.8644401 C316.286348,17.2652279 316.602651,17.7347714 316.834479,18.2730845 C317.066308,18.8113976 317.18222,19.3870303 317.18222,20 C317.18222,20.6129697 317.066308,21.1886024 316.834479,21.7269155 C316.602651,22.2652286 316.286348,22.7347721 315.88556,23.1355599 C315.484772,23.5363478 315.015229,23.8526511 314.476916,24.0844794 C313.938602,24.3163076 313.36297,24.43222 312.75,24.43222 C312.13703,24.43222 311.561398,24.3163076 311.023084,24.0844794 C310.484771,23.8526511 310.015228,23.5363478 309.61444,23.1355599 C309.213652,22.7347721 308.897349,22.2652286 308.665521,21.7269155 C308.433692,21.1886024 308.31778,20.6129697 308.31778,20 C308.31778,19.3870303 308.433692,18.8113976 308.665521,18.2730845 C308.897349,17.7347714 309.213652,17.2652279 309.61444,16.8644401 C310.015228,16.4636522 310.484771,16.1473489 311.023084,15.9155206 C311.561398,15.6836924 312.13703,15.56778 312.75,15.56778 L312.75,15.56778 Z M312.75,23.1119843 C313.182222,23.1119843 313.586933,23.031435 313.964145,22.870334 C314.341357,22.709233 314.671413,22.4872313 314.954322,22.2043222 C315.237231,21.9214131 315.459233,21.5913575 315.620334,21.2141454 C315.781435,20.8369333 315.861984,20.4322222 315.861984,20 C315.861984,19.5677778 315.781435,19.1630667 315.620334,18.7858546 C315.459233,18.4086425 315.237231,18.0785869 314.954322,17.7956778 C314.671413,17.5127687 314.341357,17.290767 313.964145,17.129666 C313.586933,16.968565 313.182222,16.8880157 312.75,16.8880157 C312.317778,16.8880157 311.913067,16.968565 311.535855,17.129666 C311.158643,17.290767 310.828587,17.5127687 310.545678,17.7956778 C310.262769,18.0785869 310.040767,18.4086425 309.879666,18.7858546 C309.718565,19.1630667 309.638016,19.5677778 309.638016,20 C309.638016,20.4322222 309.718565,20.8369333 309.879666,21.2141454 C310.040767,21.5913575 310.262769,21.9214131 310.545678,22.2043222 C310.828587,22.4872313 311.158643,22.709233 311.535855,22.870334 C311.913067,23.031435 312.317778,23.1119843 312.75,23.1119843 L312.75,23.1119843 Z" id="Settings"></path></g></g></g></svg>
