<?xml version="1.0" encoding="utf-8"?>
<svg version="1.1" id="Layer_1" xmlns="http://www.w3.org/2000/svg" xmlns:xlink="http://www.w3.org/1999/xlink" x="0px" y="0px"
	 width="16px" height="16px" viewBox="0 0 16 16" style="enable-background:new 0 0 16 16;" xml:space="preserve">
<style type="text/css">
	.st0{fill:#22A8DC;}
	.st1{fill:#FFFFFF;}
	.st2{fill:#2278BB;}
	.st3{fill:#3D5A9A;}
	.st4{clip-path:url(#SVGID_2_);fill:none;}
	.st5{clip-path:url(#SVGID_2_);fill:#333333;}
	.st6{opacity:0.5;clip-path:url(#SVGID_2_);fill:#FFFFFF;enable-background:new    ;}
	.st7{clip-path:url(#SVGID_4_);fill:none;}
	.st8{clip-path:url(#SVGID_4_);fill:#333333;}
	.st9{opacity:0.5;clip-path:url(#SVGID_4_);fill:#FFFFFF;enable-background:new    ;}
</style>
<g>
	<defs>
		<path id="SVGID_1_" d="M9.842,7.273C9.947,7.031,10,6.772,10,6.496S9.947,5.961,9.842,5.719s-0.249-0.454-0.43-0.635
			C9.23,4.903,9.02,4.76,8.777,4.654S8.275,4.496,8,4.496c-0.276,0-0.535,0.053-0.777,0.158s-0.454,0.249-0.635,0.43
			c-0.182,0.181-0.324,0.393-0.43,0.635S6,6.22,6,6.496s0.053,0.535,0.158,0.777s0.248,0.454,0.43,0.635
			c0.181,0.181,0.393,0.324,0.635,0.43S7.724,8.496,8,8.496c0.275,0,0.535-0.053,0.777-0.158s0.453-0.249,0.635-0.43
			C9.593,7.728,9.736,7.516,9.842,7.273z"/>
	</defs>
	<clipPath id="SVGID_2_">
		<use xlink:href="#SVGID_1_"  style="overflow:visible;"/>
	</clipPath>
	<rect x="-556.956" y="-272.249" class="st4" width="683" height="683"/>
	<rect x="-556.956" y="-272.249" class="st4" width="683" height="683"/>
	<rect x="-556.956" y="-272.249" class="st5" width="683" height="683"/>
	<rect x="-556.956" y="-272.249" class="st6" width="683" height="683"/>
</g>
<g>
	<defs>
		<path id="SVGID_3_" d="M8,0C3.582,0,0,3.582,0,8s3.582,8,8,8s8-3.582,8-8S12.418,0,8,0z M11,12c0,0-0.076-0.825-0.229-1.191
			s-0.363-0.684-0.631-0.952C9.872,9.588,9.555,9.377,9.189,9.225C8.823,9.073,8.427,8.996,8,8.996
			c-0.279,0-0.547,0.035-0.805,0.105S6.697,9.272,6.475,9.4S6.05,9.685,5.869,9.865c-0.182,0.181-0.336,0.383-0.465,0.605
			s-0.229,0.465-0.299,0.723S5,12,5,12H4.5c0,0,0.055-0.735,0.164-1.078s0.264-0.658,0.465-0.944c0.2-0.286,0.443-0.54,0.729-0.758
			s0.604-0.392,0.955-0.52C6.609,8.59,6.427,8.457,6.266,8.301c-0.162-0.156-0.299-0.33-0.412-0.522S5.652,7.384,5.592,7.166
			C5.53,6.948,5.5,6.726,5.5,6.496c0-0.347,0.064-0.671,0.195-0.975c0.13-0.304,0.309-0.568,0.535-0.795s0.491-0.405,0.795-0.535
			C7.328,4.062,7.653,3.996,8,3.996c0.346,0,0.671,0.065,0.975,0.195C9.277,4.321,9.543,4.5,9.77,4.727s0.404,0.491,0.535,0.795
			c0.13,0.304,0.195,0.628,0.195,0.975c0,0.229-0.031,0.452-0.092,0.668c-0.062,0.216-0.148,0.419-0.262,0.609
			s-0.25,0.364-0.41,0.521s-0.341,0.291-0.541,0.4c0.354,0.122,0.674,0.294,0.959,0.514s0.527,0.475,0.727,0.764
			s0.352,0.607,0.459,0.951C11.446,11.268,11.5,12,11.5,12H11z"/>
	</defs>
	<clipPath id="SVGID_4_">
		<use xlink:href="#SVGID_3_"  style="overflow:visible;"/>
	</clipPath>
	<rect x="-556.956" y="-272.249" class="st7" width="683" height="683"/>
	<rect x="-556.956" y="-272.249" class="st7" width="683" height="683"/>
	<rect x="-556.956" y="-272.249" class="st8" width="683" height="683"/>
	<rect x="-556.956" y="-272.249" class="st9" width="683" height="683"/>
	<rect x="-556.956" y="-272.249" class="st7" width="683" height="683"/>
	<rect x="-556.956" y="-272.249" class="st7" width="683" height="683"/>
	<rect x="-556.956" y="-272.249" class="st8" width="683" height="683"/>
	<rect x="-556.956" y="-272.249" class="st9" width="683" height="683"/>
</g>
</svg>
