<?xml version="1.0" encoding="utf-8"?>
<svg version="1.1" id="Layer_1" xmlns="http://www.w3.org/2000/svg" xmlns:xlink="http://www.w3.org/1999/xlink" x="0px" y="0px"
	 width="16px" height="16px" viewBox="0 0 16 16" style="enable-background:new 0 0 16 16;" xml:space="preserve">
<style type="text/css">
	.st0{fill:#22A8DC;}
	.st1{fill:#FFFFFF;}
	.st2{fill:#2278BB;}
	.st3{fill:#3D5A9A;}
	.st4{clip-path:url(#SVGID_2_);fill:none;}
	.st5{clip-path:url(#SVGID_2_);fill:#333333;}
	.st6{opacity:0.5;clip-path:url(#SVGID_2_);fill:#FFFFFF;enable-background:new    ;}
	.st7{clip-path:url(#SVGID_4_);fill:none;}
	.st8{clip-path:url(#SVGID_4_);fill:#333333;}
	.st9{opacity:0.5;clip-path:url(#SVGID_4_);fill:#FFFFFF;enable-background:new    ;}
</style>
<rect class="st1" width="4.009" height="3.991"/>
<rect y="6.005" class="st1" width="4.009" height="3.991"/>
<rect y="11.991" class="st1" width="4.009" height="4.01"/>
<rect x="6.005" class="st1" width="3.99" height="3.991"/>
<rect x="6.005" y="6.005" class="st1" width="3.99" height="3.991"/>
<rect x="6.005" y="11.991" class="st1" width="3.99" height="4.01"/>
<rect x="12.01" class="st1" width="3.99" height="3.991"/>
<rect x="12.01" y="6.005" class="st1" width="3.99" height="3.991"/>
<rect x="12.01" y="11.991" class="st1" width="3.99" height="4.01"/>
<g>
	<defs>
		<path id="SVGID_1_" d="M75.842,7.273C75.947,7.031,76,6.772,76,6.496s-0.053-0.535-0.158-0.777s-0.249-0.454-0.43-0.635
			c-0.182-0.181-0.393-0.324-0.635-0.43S74.275,4.496,74,4.496c-0.276,0-0.535,0.053-0.777,0.158s-0.454,0.249-0.635,0.43
			c-0.182,0.181-0.324,0.393-0.43,0.635S72,6.22,72,6.496s0.053,0.535,0.158,0.777s0.248,0.454,0.43,0.635
			c0.181,0.181,0.393,0.324,0.635,0.43S73.724,8.496,74,8.496c0.275,0,0.535-0.053,0.777-0.158s0.453-0.249,0.635-0.43
			C75.593,7.728,75.736,7.516,75.842,7.273z"/>
	</defs>
	<clipPath id="SVGID_2_">
		<use xlink:href="#SVGID_1_"  style="overflow:visible;"/>
	</clipPath>
	<rect x="-490.956" y="-272.249" class="st4" width="683" height="683"/>
	<rect x="-490.956" y="-272.249" class="st4" width="683" height="683"/>
	<rect x="-490.956" y="-272.249" class="st5" width="683" height="683"/>
	<rect x="-490.956" y="-272.249" class="st6" width="683" height="683"/>
</g>
<g>
	<defs>
		<path id="SVGID_3_" d="M74,0c-4.418,0-8,3.582-8,8s3.582,8,8,8s8-3.582,8-8S78.418,0,74,0z M77,12c0,0-0.076-0.825-0.229-1.191
			s-0.363-0.684-0.631-0.952c-0.269-0.269-0.586-0.479-0.951-0.631C74.823,9.073,74.427,8.996,74,8.996
			c-0.279,0-0.547,0.035-0.805,0.105s-0.498,0.17-0.721,0.299s-0.425,0.284-0.605,0.465c-0.182,0.181-0.336,0.383-0.465,0.605
			s-0.229,0.465-0.299,0.723S71,12,71,12h-0.5c0,0,0.055-0.735,0.164-1.078s0.264-0.658,0.465-0.944
			c0.2-0.286,0.443-0.54,0.729-0.758s0.604-0.392,0.955-0.52c-0.203-0.109-0.386-0.242-0.547-0.399
			c-0.162-0.156-0.299-0.33-0.412-0.522s-0.201-0.396-0.262-0.613C71.53,6.948,71.5,6.726,71.5,6.496
			c0-0.347,0.064-0.671,0.195-0.975c0.13-0.304,0.309-0.568,0.535-0.795s0.491-0.405,0.795-0.535
			c0.303-0.13,0.628-0.195,0.975-0.195c0.346,0,0.671,0.065,0.975,0.195c0.303,0.13,0.568,0.309,0.795,0.535
			s0.404,0.491,0.535,0.795c0.13,0.304,0.195,0.628,0.195,0.975c0,0.229-0.031,0.452-0.092,0.668
			c-0.062,0.216-0.148,0.419-0.262,0.609s-0.25,0.364-0.41,0.521s-0.341,0.291-0.541,0.4c0.354,0.122,0.674,0.294,0.959,0.514
			s0.527,0.475,0.727,0.764s0.352,0.607,0.459,0.951C77.446,11.268,77.5,12,77.5,12H77z"/>
	</defs>
	<clipPath id="SVGID_4_">
		<use xlink:href="#SVGID_3_"  style="overflow:visible;"/>
	</clipPath>
	<rect x="-490.956" y="-272.249" class="st7" width="683" height="683"/>
	<rect x="-490.956" y="-272.249" class="st7" width="683" height="683"/>
	<rect x="-490.956" y="-272.249" class="st8" width="683" height="683"/>
	<rect x="-490.956" y="-272.249" class="st9" width="683" height="683"/>
	<rect x="-490.956" y="-272.249" class="st7" width="683" height="683"/>
	<rect x="-490.956" y="-272.249" class="st7" width="683" height="683"/>
	<rect x="-490.956" y="-272.249" class="st8" width="683" height="683"/>
	<rect x="-490.956" y="-272.249" class="st9" width="683" height="683"/>
</g>
</svg>
